<?xml version="1.0" standalone="no"?>
<!DOCTYPE svg PUBLIC "-//W3C//DTD SVG 20010904//EN"
 "http://www.w3.org/TR/2001/REC-SVG-20010904/DTD/svg10.dtd">
<svg version="1.0" xmlns="http://www.w3.org/2000/svg"
 width="490.000000pt" height="490.000000pt" viewBox="0 0 490.000000 490.000000"
 preserveAspectRatio="xMidYMid meet">

<g transform="translate(0.000000,490.000000) scale(0.100000,-0.100000)"
fill="#000000" stroke="none">
<path d="M820 3951 c-84 -26 -160 -91 -202 -171 l-23 -45 -3 -659 c-3 -732 -5
-710 63 -799 19 -25 60 -60 92 -78 49 -28 69 -33 140 -37 l83 -5 0 -218 c0
-210 1 -218 21 -233 12 -8 29 -12 38 -9 26 9 81 65 74 76 -3 6 -2 7 4 4 11 -7
106 86 98 96 -3 4 -2 5 2 2 10 -8 63 47 56 58 -3 6 -1 7 4 4 6 -4 43 27 82 69
l71 75 0 563 c0 487 2 570 16 616 30 100 96 175 200 226 l59 29 718 3 717 3 0
94 c0 160 -54 255 -178 313 l-57 27 -1025 2 c-564 1 -1036 -2 -1050 -6z"/>
<path d="M2025 2634 c-90 -47 -120 -136 -76 -222 26 -50 48 -69 101 -83 124
-32 239 87 199 208 -30 91 -142 140 -224 97z"/>
<path d="M2788 2628 c-21 -12 -40 -30 -44 -40 -3 -10 -9 -18 -13 -18 -16 0
-30 -84 -21 -125 12 -54 72 -110 127 -120 113 -19 212 79 192 188 -20 113
-144 171 -241 115z"/>
<path d="M3575 2634 c-111 -62 -121 -213 -19 -283 50 -35 109 -38 164 -9 112
60 120 205 17 282 -36 26 -122 32 -162 10z"/>
</g>
</svg>
