<svg id="Ebene_4" data-name="Ebene 4" xmlns="http://www.w3.org/2000/svg" viewBox="0 0 1920 503.38"><defs><style>.cls-1{fill:#472854;}.cls-2{fill:#34203d;}</style></defs><path class="cls-1" d="M0,285.93C42.67,369,37.69,398.6,79,439c57.05,55.79,131.64,62.87,147,64,21.67,1.59,42.11-1.94,83-9,68.11-11.76,100.45-25.43,205-49,27.94-6.3,44.41-9.56,67-9,42.93,1.06,62.12,14.75,95,24,81.3,22.86,159.62-5.88,209-24,29.63-10.87,25.15-12.82,82-40a1616.88,1616.88,0,0,1,239-92c63.66-18.68,44.39-8.34,169-40,24.35-6.19,56.47-14.56,101-18,17.75-1.37,44.84-3.35,77,0,66.55,6.93,114.87,33.21,134,43,54.49,27.89,155.6,64.14,233,67V0H0Z"/><path class="cls-2" d="M0,229.22c60.37,67.3,143.82,90,228,112.78,41.53,11.26,149.87,36.48,328,12,132.36-18.19,139-41.25,380-113,44-13.11,187.69-44.41,475-107,48.18-10.5,118.26-25.18,208-16,61.3,6.27,67.07,17.05,120,22,50.16,4.69,124.66,2.46,181-15.62V0H0Z"/></svg>