<svg id="Ebene_1" data-name="Ebene 1" xmlns="http://www.w3.org/2000/svg" viewBox="0 0 158.14 177.38"><defs><style>.cls-1{fill:#34203d;}</style></defs><path class="cls-1" d="M100,8.71a55,55,0,1,0,55,55A55,55,0,0,0,100,8.71Zm0,77.94a23,23,0,1,1,23-23A23,23,0,0,1,100,86.65Z" transform="translate(-21.94 -8.71)"/><path class="cls-1" d="M53.07,92.33l44,73.84L149,88.73,53.07,90.15Z" transform="translate(-21.94 -8.71)"/><path class="cls-1" d="M101,155.31c40.3,0,73,6.36,73,14.2s-32.67,14.2-73,14.2-73-6.36-73-14.2,32.67-14.2,73-14.2c-43.67,0-79.07,6.89-79.07,15.39s35.4,15.38,79.07,15.38,79.07-6.89,79.07-15.38S144.68,155.31,101,155.31Z" transform="translate(-21.94 -8.71)"/></svg>