<svg id="Ebene_1" data-name="Ebene 1" xmlns="http://www.w3.org/2000/svg" viewBox="0 0 819.24 508.3"><defs><style>.cls-1{fill:#ffe348;}</style></defs><path class="cls-1" d="M393.66,182.46q8.8.25,13.86,10.74T415,220.79a287.45,287.45,0,0,1,2.59,38.85q.12,21.75-1,44.68t-3.11,45.45q-1.94,22.53-4,40.79T406,421.25q-1.43,12.44-1.68,15.29-.78,11.91,1.68,17.09t6.22,7a19,19,0,0,0,7.77,1.94,12,12,0,0,1,6.34,1.69c1.56,1,2.29,2.24,2.21,3.62a8,8,0,0,1-1.82,4.28,19.38,19.38,0,0,1-4.27,4,18.33,18.33,0,0,1-5.18,2.59,33,33,0,0,1-4.92,1,31.91,31.91,0,0,1-7.64.13,30.13,30.13,0,0,1-8.68-2.2,22.91,22.91,0,0,1-8-5.7,30.76,30.76,0,0,1-6.08-10.62,53.24,53.24,0,0,1-2.72-16.84q0-1.81.9-12.82T382.52,404q1.56-16.71,3.24-37.68t3.11-42.74q1.42-21.75,2.2-42.6t.52-37.43a225.23,225.23,0,0,0-1.82-27.45q-1.54-10.89-4.92-12.44-5.7-2.58-13,5.31t-15,22.67q-7.77,14.76-15.93,34.44t-15.67,40.41q-7.51,20.72-14,40.66T300.16,382.4q-3.89,21-6.86,34.71t-3.76,15.28a16.68,16.68,0,0,1-4.92,5.7,26.23,26.23,0,0,1-6.86,3.88,12.69,12.69,0,0,1-6.61.78,5,5,0,0,1-4.14-3.63q-.52-1.55,1.16-13.72t4.54-31.08q2.84-18.9,6.6-42.61t7.25-48Q290.05,279.33,293,256t4.53-41.44a280.08,280.08,0,0,0,1.3-29.14q-.27-11-3.37-11-4.41.52-10.23,8.8a155.47,155.47,0,0,0-12.43,22.15q-6.61,13.86-13.73,32t-14.38,38.08q-7.24,19.95-14.11,40.53t-13,39.37q-6.09,18.78-11,34.7t-8.29,26.29q-2.58,10.88-4.92,19.56t-4.4,15.41q-1,2.85-5.18,4a17.87,17.87,0,0,1-8.55.26,14.91,14.91,0,0,1-7.64-4.14q-3.24-3.24-2.46-9.2.25-2.07,2.07-11.26t4.41-23.57q2.58-14.38,5.57-32.9t5.56-39q2.59-20.46,4.8-41.7t3-41.31q.78-20.07-.13-38a169.73,169.73,0,0,0-4.14-31.21q-3.24-13.34-9.19-21.11a19.17,19.17,0,0,0-15.29-8,51.31,51.31,0,0,0-19,3A81.07,81.07,0,0,0,126,165.62a89.54,89.54,0,0,0-14.24,11.53,153.8,153.8,0,0,0-11.14,12.3,108.54,108.54,0,0,0-7.77,10.75,45.12,45.12,0,0,0-3.75,6.86q-2.6,6-5.18,4.27c-1.73-1.12-2.77-3.4-3.11-6.86-.18-2.41.56-5.7,2.2-9.84a67.7,67.7,0,0,1,7.25-13.21A110.43,110.43,0,0,1,102,167.18a117.19,117.19,0,0,1,15.41-13.4,92.83,92.83,0,0,1,18.26-10.35,63.8,63.8,0,0,1,20.72-5q16.56-1.31,28.23,6.34t19,21.5q7.38,13.86,10.88,33.15a288.76,288.76,0,0,1,4.27,41.44q.78,22.14-.77,46T213.4,334q6-19.43,12.82-40.79t14.37-42.09q7.51-20.72,15.15-39.37A327.22,327.22,0,0,1,271,179.09q7.64-14,14.9-22.15t13.72-7.9q7.26.53,11.66,8.42t6.47,21.5a211.27,211.27,0,0,1,2.07,31.47q0,17.87-1.42,37.94t-4,41.31q-2.6,21.24-5.7,41.44,4.14-16,9.58-33.41T330,263.78q6.21-16.57,13.33-31.47a176,176,0,0,1,15.16-26.16,75.27,75.27,0,0,1,16.83-17.61Q384.08,182.2,393.66,182.46ZM291.1,414.52a8.12,8.12,0,0,0,.77-3.63c-.35,1.39-.6,2.42-.77,3.11S290.92,414.87,291.1,414.52Z" transform="translate(-80.76 -138.24)"/><path class="cls-1" d="M458.15,291a14.13,14.13,0,0,1,5.7-1.17,34.76,34.76,0,0,1,7.25.52,27.3,27.3,0,0,1,6.47,1.94c1.9.87,2.94,1.81,3.11,2.85.17.52-.17,2.81-1,6.86s-1.9,9.24-3.1,15.54-2.51,13.34-3.89,21.11-2.55,15.72-3.49,23.83-1.65,16-2.08,23.57a117.73,117.73,0,0,0,.39,20.2q1,8.81,4.15,14.12a8.9,8.9,0,0,0,9.06,4.79q7-.25,12.56-8.42a99,99,0,0,0,10.23-20.33,234.44,234.44,0,0,0,8.29-26.55q3.63-14.37,6.73-27.58a208.24,208.24,0,0,1,5.83-26.42q3.24-10.62,4.53-11.39a14.13,14.13,0,0,1,5.7-1.17,34.05,34.05,0,0,1,7.25.52,27.24,27.24,0,0,1,6.48,1.94c1.9.87,2.93,1.81,3.11,2.85q.25.78-.91,6.73t-2.85,15.15q-1.68,9.21-3.49,20.72T541,374.5q-1.31,11.79-1.69,23.06a117.67,117.67,0,0,0,.78,19.81q1.17,8.55,4.4,13.73a9.21,9.21,0,0,0,9.2,4.66q6.21-.52,11.65-6.74a72.18,72.18,0,0,0,10.23-16,176.43,176.43,0,0,0,8.81-22q4-12.17,7.25-24.6t5.57-23.7q2.32-11.26,4.14-19.3a3.53,3.53,0,0,1,1.69-2.46,7.91,7.91,0,0,1,2.85-1.16,4.84,4.84,0,0,1,2.72.26,2.47,2.47,0,0,1,1.55,2.07q.26,1-1.17,10.88T604.48,357q-3.11,14.25-7.77,30.56A204.39,204.39,0,0,1,585.45,418a99.76,99.76,0,0,1-14.9,23.57q-8.28,9.45-18.39,10t-17-3.63a33.13,33.13,0,0,1-11.27-11.39,56.42,56.42,0,0,1-6.6-17.1,121.2,121.2,0,0,1-2.72-21,101.82,101.82,0,0,1-14.76,26.16q-8.55,10.62-20,11.14-11.91.53-19.55-5.31a36.61,36.61,0,0,1-11.66-15.67A82.32,82.32,0,0,1,443.38,392a168.15,168.15,0,0,1-.51-26.42A263.45,263.45,0,0,1,445.72,339q2.07-13.08,4.4-23.57a160.89,160.89,0,0,1,4.66-17.22C456.33,293.74,457.46,291.33,458.15,291Z" transform="translate(-80.76 -138.24)"/><path class="cls-1" d="M592.05,299.78q1-12.94,6.6-20.59a33.17,33.17,0,0,1,13.47-11.13,41.31,41.31,0,0,1,17-3.5,68.23,68.23,0,0,1,17.09,2.07,3.17,3.17,0,0,1,1.81,1.43,4.54,4.54,0,0,1,.78,2.59,3.82,3.82,0,0,1-1,2.59,4.78,4.78,0,0,1-3.1,1.42,55.94,55.94,0,0,0-8.81,2.33,27.1,27.1,0,0,0-8.29,4.79,28.48,28.48,0,0,0-6.73,8.55,47.51,47.51,0,0,0-4.41,13.6q-1.29,7.51.39,18.39A228.55,228.55,0,0,0,622,346.27q3.49,13.08,8,27.59t8.94,29q9.32-10.62,18.65-21.89t17.87-23.31q8.53-12,15.8-24.73A199.28,199.28,0,0,0,703.68,307a4.33,4.33,0,0,1,2.59-3,4.12,4.12,0,0,1,3.36.13,5.94,5.94,0,0,1,2.59,3.23,12.25,12.25,0,0,1,.52,6.35q-1.82,10.88-8.67,23.05a213.26,213.26,0,0,1-16.71,25q-9.84,12.82-21.63,26T642.29,414Q647,430.32,650.06,445a104.64,104.64,0,0,1,2.59,26.29,45.81,45.81,0,0,1-3.36,14.51,55.42,55.42,0,0,1-8.94,15.15A49.9,49.9,0,0,1,626,512.81a37.26,37.26,0,0,1-19.43,4.53q-12.94-.51-19.42-8.16T580.65,485a30.16,30.16,0,0,1,3-12.3,91.07,91.07,0,0,1,8-14q5.05-7.38,12-15.67t15-17.35q-3.88-16.57-8.81-35.23t-9.19-36q-4.28-17.34-6.87-31.73T592.05,299.78ZM626,472a82.72,82.72,0,0,0-1-14.89q-1.29-8.94-3.62-19.82a259.17,259.17,0,0,0-20.59,27.59q-8.16,12.81-8.68,23.18a18.46,18.46,0,0,0,4,12.82,18.31,18.31,0,0,0,5.18,4.4,12.09,12.09,0,0,0,6.87,1.42,11.75,11.75,0,0,0,8.15-3.62,26.47,26.47,0,0,0,5.31-8.42,52.27,52.27,0,0,0,3.11-11A94.14,94.14,0,0,0,626,472Z" transform="translate(-80.76 -138.24)"/><path class="cls-1" d="M703.94,279.84a11.43,11.43,0,0,1,5.69-1.42,29.25,29.25,0,0,1,7.26.64,31.5,31.5,0,0,1,6.47,2.08c1.9.86,2.93,1.81,3.11,2.84.17.52-.09,3.16-.78,7.9s-1.55,10.88-2.59,18.39S721,326.2,720,335.53s-1.9,18.77-2.59,28.36-1.12,18.95-1.29,28.1a160.82,160.82,0,0,0,1.16,24.34q1.43,10.64,4.67,17t9.19,5.82q6.21-.51,12.3-8.15a105.08,105.08,0,0,0,11.79-19.3,264.4,264.4,0,0,0,10.88-26q5.17-14.37,9.58-28.23t7.9-25.77q3.49-11.91,5.83-18.91a3.3,3.3,0,0,1,3.88-2.46,3.76,3.76,0,0,1,3.37,3.5q.26.78-.91,6.86t-3.37,15.67q-2.19,9.58-5.56,21.63t-7.77,24.6q-4.41,12.57-9.72,24.48a153.38,153.38,0,0,1-11.39,21.24,68,68,0,0,1-13.08,15.15q-7,5.82-14.51,6.09-11.91.51-19.68-6.35T698.5,424.62a106.43,106.43,0,0,1-6-26.68A276.78,276.78,0,0,1,691.12,367a303.76,303.76,0,0,1,1.81-31.21q1.68-15.27,3.75-27.58t4.15-20.07C702.21,283,703.24,280.19,703.94,279.84Zm21.23-67.08a14.7,14.7,0,0,1,7.38,2.59,16.72,16.72,0,0,1,4.28,4.66,14.36,14.36,0,0,1,1.94,5.44,38.54,38.54,0,0,1,.39,5.18,24.41,24.41,0,0,1-2.2,9.84,16.78,16.78,0,0,1-4.66,6,13.12,13.12,0,0,1-6,2.59,16.27,16.27,0,0,1-5.83,0,10.37,10.37,0,0,1-6.09-3.37,17,17,0,0,1-3.23-5.7,20.3,20.3,0,0,1-1-6.47,34.54,34.54,0,0,1,.52-6.22,21.33,21.33,0,0,1,3.11-7.12,20.6,20.6,0,0,1,4.27-4.66,14.07,14.07,0,0,1,4.27-2.33A5.54,5.54,0,0,1,725.17,212.76Z" transform="translate(-80.76 -138.24)"/><path class="cls-1" d="M818.93,287.87q11.13,0,18.26,4.27A32.1,32.1,0,0,1,848.33,303a44.33,44.33,0,0,1,5.57,14.38A83.69,83.69,0,0,1,855.58,332a64.59,64.59,0,0,1-.65,11.52c-.52,3.11-.95,4.76-1.29,4.93a15.53,15.53,0,0,1-3.24,1.29,20.44,20.44,0,0,1-5.18.91,8.82,8.82,0,0,1-4.66-.91c-1.3-.69-1.77-2-1.43-3.88.17-1.21.35-3.28.52-6.22a97.18,97.18,0,0,0,0-10,111.71,111.71,0,0,0-1.16-11.53,44.63,44.63,0,0,0-3.11-11,25.9,25.9,0,0,0-5.7-8.41,13,13,0,0,0-8.68-3.63q-5.18-.25-9.84,5.31a53,53,0,0,0-8.29,15,135.4,135.4,0,0,0-6.08,21.5,189.35,189.35,0,0,0-3.37,24.6,179.15,179.15,0,0,0-.13,24.61,103.61,103.61,0,0,0,3.5,21.63q2.72,9.58,7.77,15.41A16,16,0,0,0,817.12,429q10.1.27,19.42-8.28a110.51,110.51,0,0,0,17.61-21.24,201.66,201.66,0,0,0,15-27.71q6.74-15,11.65-28.11t7.64-21.88q2.73-8.81,3-9.33a4.27,4.27,0,0,1,1.68-3.1,4.35,4.35,0,0,1,3-.91,4.62,4.62,0,0,1,2.72,1.16,4,4,0,0,1,1.17,3.11q0,1.56-3.11,11.66t-8.55,24.47q-5.43,14.38-13.08,30.82A239.67,239.67,0,0,1,858.56,410a120.38,120.38,0,0,1-19.3,23.18q-10.23,9.31-21.11,9.32-15,.25-25.12-6.34a49.69,49.69,0,0,1-16.19-17.36,72.31,72.31,0,0,1-8.28-24.6,119,119,0,0,1-1-28.36A134,134,0,0,1,773,337.34a109,109,0,0,1,10.88-24.87,61.87,61.87,0,0,1,15.54-17.61A33.13,33.13,0,0,1,818.93,287.87Z" transform="translate(-80.76 -138.24)"/><path class="cls-1" d="M277.2,541.54H312c28.8,0,48.75,20.1,48.75,51.6s-19.5,53.4-48.9,53.4H277.2Zm8.1,97.5h25.35c27.75,0,41.4-19.5,41.4-45.45,0-23.1-12.3-44.55-41.4-44.55H285.3Z" transform="translate(-80.76 -138.24)"/><path class="cls-1" d="M375.3,646.54V627.19h7.5v19.35Z" transform="translate(-80.76 -138.24)"/><path class="cls-1" d="M420.3,610.24,407,646.54H398.7l38.55-105h9.6l40.2,105H478.2l-13.65-36.3Zm41.55-7.5c-11.7-31.2-17.7-46.2-19.8-53.25h-.15c-2.55,8-9.3,26.55-18.75,53.25Z" transform="translate(-80.76 -138.24)"/><path class="cls-1" d="M503.85,646.54V627.19h7.5v19.35Z" transform="translate(-80.76 -138.24)"/><path class="cls-1" d="M543,549H507.75v-7.5h78.89V549H551.25v97.5H543Z" transform="translate(-80.76 -138.24)"/><path class="cls-1" d="M586.05,646.54V627.19h7.5v19.35Z" transform="translate(-80.76 -138.24)"/><path class="cls-1" d="M677.39,594.94H623.85V639h58.64l-1.2,7.5H615.75v-105h64.34V549H623.85v38.4h53.54Z" transform="translate(-80.76 -138.24)"/></svg>